# xmcd
#
# Track frame offsets:
# 150
# 14402
# 29167
# 41875
# 54682
# 65247
# 75675
# 84515
# 96317
# 107140
# 123165
# 129840
# 142277
# 152807
# 166397
# 182687
# 190767
# 206087
# 217237
# 227402
# 236982
# 242995
# 257905
# 271665
# 278870
# 290095
# 303797
#
# Disc length: 4288 seconds
#
#
# Revision: 0
# Processed by: cddbd v1.5.2PL0 Copyright (c) Steve Scherf et al.
# Submitted via: FreeRIP 2.941 
#
DISCID=a110be1b
DTITLE=Various Artist - 27 Greatest 5-String Banjo and Fiddle Favourites
DYEAR=1993
DGENRE=Bluegrass
TTITLE0=Foggy Mountain Breakdown
TTITLE1=Arkansas Traveller
TTITLE2=Gonna Lay Down My Old Banjo
TTITLE3=Cracklin Hen
TTITLE4=Rollin' Banjo
TTITLE5=Dusty Fiddle
TTITLE6=Run Devil, Run
TTITLE7=Chubby's Hornpipe
TTITLE8=Back Road Pickin
TTITLE9=Faded Love
TTITLE10=Duel At Dorango
TTITLE11=Stampers Blues
TTITLE12=Rubin
TTITLE13=Orange Blossom Special
TTITLE14=The Country Mile
TTITLE15=Buckwheat
TTITLE16=Duelling Banjo's
TTITLE17=Lee Highway Blues
TTITLE18=West Virginia Rag
TTITLE19=Coon Grass Stomp
TTITLE20=Banjo Fling
TTITLE21=Turkey In The Stray
TTITLE22=Wildwood Flower
TTITLE23=Back Up and Push
TTITLE24=Denise, Ride
TTITLE25=Maidens Prayer
TTITLE26=Down Yonder
EXTD=
EXTT0=
EXTT1=
EXTT2=
EXTT3=
EXTT4=
EXTT5=
EXTT6=
EXTT7=
EXTT8=
EXTT9=
EXTT10=
EXTT11=
EXTT12=
EXTT13=
EXTT14=
EXTT15=
EXTT16=
EXTT17=
EXTT18=
EXTT19=
EXTT20=
EXTT21=
EXTT22=
EXTT23=
EXTT24=
EXTT25=
EXTT26=
PLAYORDER=
